# xmcd CD database file
#
# Track frame offsets:
#	150
#	15293
#	27831
#	41176
#	54221
#	65782
#	79104
#	91795
#	105776
#	120155
#	132755
#	146164
#	161024
#	176548
#	192204
#	205093
#	219446
#	232971
#	245295
#	259503
#
# Disc length: 3621 seconds
#
# Revision: 0
# Processed by: cddbd v1.4PL0 Copyright (c) Steve Scherf et al.
# Submitted via: CDex 1.40Release
#
DISCID=f90e2314
DTITLE=Jimmie Rodgers - Jimmie Rodgers - Famous Country Music Makers
DYEAR=1999
DGENRE=Country
TTITLE0=In The Jailhouse Now
TTITLE1=Waitin' For A Train
TTITLE2=T. B. Blues
TTITLE3=Frankie And Johnny
TTITLE4=My Rough And Rowdy Ways
TTITLE5=Pistol Packin' Mama
TTITLE6=Any Old Time
TTITLE7=I'm Free From The Chain Gang Now
TTITLE8=Whippin' That Ol' T.B.
TTITLE9=Desert Blues
TTITLE10=Miss The Mississippi And You
TTITLE11=When The Cactus Is In Bloom
TTITLE12=Gambling Bar Room Blues
TTITLE13=Ben Dewberry's Final Run
TTITLE14=Peach Pickin' Time In Georgia
TTITLE15=Hobo's Meditation
TTITLE16=High Powered Mama
TTITLE17=Let Me Be Your Sidetrack
TTITLE18=Mother, The Queen Of My Heart
TTITLE19=Hobo Bill's Last Ride
EXTD=YEAR: 1999 ID3G: 2
EXTT0=
EXTT1=
EXTT2=
EXTT3=
EXTT4=
EXTT5=
EXTT6=
EXTT7=
EXTT8=
EXTT9=
EXTT10=
EXTT11=
EXTT12=
EXTT13=
EXTT14=
EXTT15=
EXTT16=
EXTT17=
EXTT18=
EXTT19=
PLAYORDER=
